{
  "accessors": [
    {
      "bufferView": 2,
      "componentType": 5126,
      "count": 10,
      "max": [
        -23.04002571105957,
        9.000679016113281,
        -0.40194401144981384
      ],
      "min": [
        -23.04002571105957,
        -9.000679016113281,
        -0.42523500323295593
      ],
      "type": "VEC3"
    },
    {
      "bufferView": 2,
      "byteOffset": 120,
      "componentType": 5126,
      "count": 10,
      "max": [
        1.0,
        0.0,
        0.0
      ],
      "min": [
        1.0,
        0.0,
        0.0
      ],
      "type": "VEC3"
    },
    {
      "bufferView": 1,
      "componentType": 5126,
      "count": 10,
      "max": [
        0.5004040002822876,
        0.8375160098075867
      ],
      "min": [
        0.5,
        0.6875
      ],
      "type": "VEC2"
    },
    {
      "bufferView": 0,
      "componentType": 5125,
      "count": 24,
      "type": "SCALAR"
    },
    {
      "bufferView": 2,
      "byteOffset": 240,
      "componentType": 5126,
      "count": 1792,
      "max": [
        34.08702850341797,
        12.837389945983887,
        -14.898307800292969
      ],
      "min": [
        -34.08702850341797,
        -12.837389945983887,
        -41.04030990600586
      ],
      "type": "VEC3"
    },
    {
      "bufferView": 2,
      "byteOffset": 21744,
      "componentType": 5126,
      "count": 1792,
      "max": [
        1.0,
        1.0,
        1.0
      ],
      "min": [
        -1.0,
        -1.0,
        -1.0
      ],
      "type": "VEC3"
    },
    {
      "bufferView": 1,
      "byteOffset": 80,
      "componentType": 5126,
      "count": 1792,
      "max": [
        0.875,
        1.0
      ],
      "min": [
        0.125,
        0.0
      ],
      "type": "VEC2"
    },
    {
      "bufferView": 0,
      "byteOffset": 96,
      "componentType": 5125,
      "count": 6336,
      "type": "SCALAR"
    },
    {
      "bufferView": 2,
      "byteOffset": 43248,
      "componentType": 5126,
      "count": 9371,
      "max": [
        61.10765075683594,
        17.279855728149414,
        1.9490809440612793
      ],
      "min": [
        -53.40203857421875,
        -15.664728164672852,
        -40.952823638916016
      ],
      "type": "VEC3"
    },
    {
      "bufferView": 2,
      "byteOffset": 155700,
      "componentType": 5126,
      "count": 9371,
      "max": [
        1.0,
        1.0,
        1.0
      ],
      "min": [
        -1.0,
        -1.0,
        -1.0
      ],
      "type": "VEC3"
    },
    {
      "bufferView": 1,
      "byteOffset": 14416,
      "componentType": 5126,
      "count": 9371,
      "max": [
        0.875,
        1.0
      ],
      "min": [
        0.125,
        -0.0
      ],
      "type": "VEC2"
    },
    {
      "bufferView": 0,
      "byteOffset": 25440,
      "componentType": 5125,
      "count": 32424,
      "type": "SCALAR"
    },
    {
      "bufferView": 2,
      "byteOffset": 268152,
      "componentType": 5126,
      "count": 200,
      "max": [
        37.55997085571289,
        9.000679016113281,
        -0.40194401144981384
      ],
      "min": [
        -23.04002571105957,
        -9.000679016113281,
        -22.244388580322266
      ],
      "type": "VEC3"
    },
    {
      "bufferView": 2,
      "byteOffset": 270552,
      "componentType": 5126,
      "count": 200,
      "max": [
        1.0,
        1.0,
        1.0
      ],
      "min": [
        -1.0,
        -0.9917912483215332,
        -1.0
      ],
      "type": "VEC3"
    },
    {
      "bufferView": 1,
      "byteOffset": 89384,
      "componentType": 5126,
      "count": 200,
      "max": [
        0.875,
        1.0
      ],
      "min": [
        0.125,
        0.0
      ],
      "type": "VEC2"
    },
    {
      "bufferView": 0,
      "byteOffset": 155136,
      "componentType": 5125,
      "count": 720,
      "type": "SCALAR"
    },
    {
      "bufferView": 2,
      "byteOffset": 272952,
      "componentType": 5126,
      "count": 126,
      "max": [
        40.261775970458984,
        15.664728164672852,
        -0.40194401144981384
      ],
      "min": [
        -25.015249252319336,
        -15.664728164672852,
        -8.39257526397705
      ],
      "type": "VEC3"
    },
    {
      "bufferView": 2,
      "byteOffset": 274464,
      "componentType": 5126,
      "count": 126,
      "max": [
        2.0000004496978363e-06,
        1.0,
        0.8941097855567932
      ],
      "min": [
        -9.999999974752427e-07,
        -1.0,
        -3.000000106112566e-06
      ],
      "type": "VEC3"
    },
    {
      "bufferView": 1,
      "byteOffset": 90984,
      "componentType": 5126,
      "count": 126,
      "max": [
        0.624396026134491,
        0.25
      ],
      "min": [
        0.5,
        0.08527400344610214
      ],
      "type": "VEC2"
    },
    {
      "bufferView": 0,
      "byteOffset": 158016,
      "componentType": 5125,
      "count": 576,
      "type": "SCALAR"
    },
    {
      "bufferView": 2,
      "byteOffset": 275976,
      "componentType": 5126,
      "count": 1858,
      "max": [
        40.21150588989258,
        9.131500244140625,
        8.718454360961914
      ],
      "min": [
        -25.373180389404297,
        -9.131495475769043,
        -4.968578815460205
      ],
      "type": "VEC3"
    },
    {
      "bufferView": 2,
      "byteOffset": 298272,
      "componentType": 5126,
      "count": 1858,
      "max": [
        1.0,
        1.0,
        1.0
      ],
      "min": [
        -1.0,
        -1.0,
        -1.0
      ],
      "type": "VEC3"
    },
    {
      "bufferView": 1,
      "byteOffset": 91992,
      "componentType": 5126,
      "count": 1858,
      "max": [
        0.65625,
        0.84375
      ],
      "min": [
        0.34375,
        -0.0
      ],
      "type": "VEC2"
    },
    {
      "bufferView": 0,
      "byteOffset": 160320,
      "componentType": 5125,
      "count": 6864,
      "type": "SCALAR"
    },
    {
      "bufferView": 2,
      "byteOffset": 320568,
      "componentType": 5126,
      "count": 4994,
      "max": [
        34.47464370727539,
        7.248857021331787,
        7.248855113983154
      ],
      "min": [
        -20.860763549804688,
        -7.24885892868042,
        -7.2488579750061035
      ],
      "type": "VEC3"
    },
    {
      "bufferView": 2,
      "byteOffset": 380496,
      "componentType": 5126,
      "count": 4994,
      "max": [
        1.0,
        1.0,
        1.0
      ],
      "min": [
        -1.0,
        -1.0,
        -1.0
      ],
      "type": "VEC3"
    },
    {
      "bufferView": 1,
      "byteOffset": 106856,
      "componentType": 5126,
      "count": 4994,
      "max": [
        1.2804490327835083,
        2.3534860610961914
      ],
      "min": [
        -0.21016600728034973,
        0.0
      ],
      "type": "VEC2"
    },
    {
      "bufferView": 0,
      "byteOffset": 187776,
      "componentType": 5125,
      "count": 19584,
      "type": "SCALAR"
    },
    {
      "bufferView": 2,
      "byteOffset": 440424,
      "componentType": 5126,
      "count": 907,
      "max": [
        30.09382438659668,
        3.4501399993896484,
        3.4501399993896484
      ],
      "min": [
        2.03861403465271,
        -3.450140953063965,
        -3.4501399993896484
      ],
      "type": "VEC3"
    },
    {
      "bufferView": 2,
      "byteOffset": 451308,
      "componentType": 5126,
      "count": 907,
      "max": [
        1.1856074706884101e-05,
        0.9999955892562866,
        1.0
      ],
      "min": [
        -3.586182174331043e-06,
        -1.0,
        -1.0
      ],
      "type": "VEC3"
    },
    {
      "bufferView": 1,
      "byteOffset": 146808,
      "componentType": 5126,
      "count": 907,
      "max": [
        1.002506971359253,
        1.0
      ],
      "min": [
        0.49912700057029724,
        0.25
      ],
      "type": "VEC2"
    },
    {
      "bufferView": 0,
      "byteOffset": 266112,
      "componentType": 5125,
      "count": 4620,
      "type": "SCALAR"
    },
    {
      "bufferView": 2,
      "byteOffset": 462192,
      "componentType": 5126,
      "count": 9492,
      "max": [
        52.04282760620117,
        7.094080924987793,
        7.09410285949707
      ],
      "min": [
        -30.139244079589844,
        -7.094007968902588,
        -7.09386682510376
      ],
      "type": "VEC3"
    },
    {
      "bufferView": 2,
      "byteOffset": 576096,
      "componentType": 5126,
      "count": 9492,
      "max": [
        1.0,
        1.0,
        1.0
      ],
      "min": [
        -1.0,
        -1.0,
        -1.0
      ],
      "type": "VEC3"
    },
    {
      "bufferView": 1,
      "byteOffset": 154064,
      "componentType": 5126,
      "count": 9492,
      "max": [
        1.0018800497055054,
        1.0
      ],
      "min": [
        0.0,
        -0.0
      ],
      "type": "VEC2"
    },
    {
      "bufferView": 0,
      "byteOffset": 284592,
      "componentType": 5125,
      "count": 30924,
      "type": "SCALAR"
    },
    {
      "bufferView": 2,
      "byteOffset": 690000,
      "componentType": 5126,
      "count": 1872,
      "max": [
        49.31972885131836,
        3.4501399993896484,
        3.4501399993896484
      ],
      "min": [
        -28.952739715576172,
        -3.450140953063965,
        -3.4501399993896484
      ],
      "type": "VEC3"
    },
    {
      "bufferView": 2,
      "byteOffset": 712464,
      "componentType": 5126,
      "count": 1872,
      "max": [
        1.0,
        1.0,
        1.0
      ],
      "min": [
        -1.0,
        -1.0,
        -1.0
      ],
      "type": "VEC3"
    },
    {
      "bufferView": 1,
      "byteOffset": 230000,
      "componentType": 5126,
      "count": 1872,
      "max": [
        1.0,
        1.0
      ],
      "min": [
        0.0,
        -0.0
      ],
      "type": "VEC2"
    },
    {
      "bufferView": 0,
      "byteOffset": 408288,
      "componentType": 5125,
      "count": 6186,
      "type": "SCALAR"
    },
    {
      "bufferView": 2,
      "byteOffset": 734928,
      "componentType": 5126,
      "count": 9644,
      "max": [
        -25.20258140563965,
        18.958438873291016,
        6.780270099639893
      ],
      "min": [
        -55.0402717590332,
        -15.630637168884277,
        -8.426239013671875
      ],
      "type": "VEC3"
    },
    {
      "bufferView": 2,
      "byteOffset": 850656,
      "componentType": 5126,
      "count": 9644,
      "max": [
        1.0,
        1.0,
        1.0
      ],
      "min": [
        -1.0,
        -1.0,
        -1.0
      ],
      "type": "VEC3"
    },
    {
      "bufferView": 1,
      "byteOffset": 244976,
      "componentType": 5126,
      "count": 9644,
      "max": [
        0.875,
        1.0
      ],
      "min": [
        0.125,
        -0.0
      ],
      "type": "VEC2"
    },
    {
      "bufferView": 0,
      "byteOffset": 433032,
      "componentType": 5125,
      "count": 30138,
      "type": "SCALAR"
    },
    {
      "bufferView": 2,
      "byteOffset": 966384,
      "componentType": 5126,
      "count": 1273,
      "max": [
        -25.20258140563965,
        18.958436965942383,
        5.883175849914551
      ],
      "min": [
        -52.622501373291016,
        -15.630637168884277,
        -8.426239013671875
      ],
      "type": "VEC3"
    },
    {
      "bufferView": 2,
      "byteOffset": 981660,
      "componentType": 5126,
      "count": 1273,
      "max": [
        1.0,
        1.0,
        1.0
      ],
      "min": [
        -1.0,
        -1.0,
        -1.0
      ],
      "type": "VEC3"
    },
    {
      "bufferView": 1,
      "byteOffset": 322128,
      "componentType": 5126,
      "count": 1273,
      "max": [
        0.6657969951629639,
        0.9903839826583862
      ],
      "min": [
        0.18681199848651886,
        0.003309000050649047
      ],
      "type": "VEC2"
    },
    {
      "bufferView": 0,
      "byteOffset": 553584,
      "componentType": 5125,
      "count": 4386,
      "type": "SCALAR"
    }
  ],
  "asset": {
    "extras": {
      "author": "holobrd1 (https://sketchfab.com/holobrd1)",
      "license": "CC-BY-4.0 (http://creativecommons.org/licenses/by/4.0/)",
      "source": "https://sketchfab.com/3d-models/decanter-v6-1-5bcc455cf69d4274ade93fc963e72391",
      "title": "Decanter V6 (1)"
    },
    "generator": "Sketchfab-13.74.0",
    "version": "2.0"
  },
  "bufferViews": [
    {
      "buffer": 0,
      "byteLength": 571128,
      "name": "floatBufferViews",
      "target": 34963
    },
    {
      "buffer": 0,
      "byteLength": 332312,
      "byteOffset": 571128,
      "byteStride": 8,
      "name": "floatBufferViews",
      "target": 34962
    },
    {
      "buffer": 0,
      "byteLength": 996936,
      "byteOffset": 903440,
      "byteStride": 12,
      "name": "floatBufferViews",
      "target": 34962
    }
  ],
  "buffers": [
    {
      "byteLength": 1900376,
      "uri": "scene.bin"
    }
  ],
  "materials": [
    {
      "doubleSided": true,
      "name": "aiStandardSurface6SG",
      "pbrMetallicRoughness": {
        "metallicFactor": 0.0,
        "roughnessFactor": 0.6
      }
    },
    {
      "doubleSided": true,
      "name": "aiStandardSurface7SG",
      "pbrMetallicRoughness": {
        "metallicFactor": 0.0,
        "roughnessFactor": 0.6
      }
    },
    {
      "doubleSided": true,
      "name": "aiStandardSurface8SG",
      "pbrMetallicRoughness": {
        "metallicFactor": 0.0,
        "roughnessFactor": 0.6
      }
    },
    {
      "doubleSided": true,
      "name": "aiStandardSurface9SG",
      "pbrMetallicRoughness": {
        "metallicFactor": 0.0,
        "roughnessFactor": 0.6
      }
    },
    {
      "doubleSided": true,
      "name": "machine_metal_mat_animated1SG",
      "pbrMetallicRoughness": {
        "metallicFactor": 0.0,
        "roughnessFactor": 0.6
      }
    },
    {
      "doubleSided": true,
      "name": "standardSurface3SG",
      "pbrMetallicRoughness": {
        "metallicFactor": 0.0,
        "roughnessFactor": 0.6
      }
    },
    {
      "doubleSided": true,
      "name": "standardSurface5SG",
      "pbrMetallicRoughness": {
        "metallicFactor": 0.0,
        "roughnessFactor": 0.6
      }
    }
  ],
  "meshes": [
    {
      "name": "Object_0",
      "primitives": [
        {
          "attributes": {
            "NORMAL": 1,
            "POSITION": 0,
            "TEXCOORD_0": 2
          },
          "indices": 3,
          "material": 1,
          "mode": 4
        }
      ]
    },
    {
      "name": "Object_1",
      "primitives": [
        {
          "attributes": {
            "NORMAL": 5,
            "POSITION": 4,
            "TEXCOORD_0": 6
          },
          "indices": 7,
          "material": 0,
          "mode": 4
        }
      ]
    },
    {
      "name": "Object_2",
      "primitives": [
        {
          "attributes": {
            "NORMAL": 9,
            "POSITION": 8,
            "TEXCOORD_0": 10
          },
          "indices": 11,
          "material": 1,
          "mode": 4
        }
      ]
    },
    {
      "name": "Object_3",
      "primitives": [
        {
          "attributes": {
            "NORMAL": 13,
            "POSITION": 12,
            "TEXCOORD_0": 14
          },
          "indices": 15,
          "material": 1,
          "mode": 4
        }
      ]
    },
    {
      "name": "Object_4",
      "primitives": [
        {
          "attributes": {
            "NORMAL": 17,
            "POSITION": 16,
            "TEXCOORD_0": 18
          },
          "indices": 19,
          "material": 2,
          "mode": 4
        }
      ]
    },
    {
      "name": "Object_5",
      "primitives": [
        {
          "attributes": {
            "NORMAL": 21,
            "POSITION": 20,
            "TEXCOORD_0": 22
          },
          "indices": 23,
          "material": 3,
          "mode": 4
        }
      ]
    },
    {
      "name": "Object_6",
      "primitives": [
        {
          "attributes": {
            "NORMAL": 25,
            "POSITION": 24,
            "TEXCOORD_0": 26
          },
          "indices": 27,
          "material": 4,
          "mode": 4
        }
      ]
    },
    {
      "name": "Object_7",
      "primitives": [
        {
          "attributes": {
            "NORMAL": 29,
            "POSITION": 28,
            "TEXCOORD_0": 30
          },
          "indices": 31,
          "material": 5,
          "mode": 4
        }
      ]
    },
    {
      "name": "Object_8",
      "primitives": [
        {
          "attributes": {
            "NORMAL": 33,
            "POSITION": 32,
            "TEXCOORD_0": 34
          },
          "indices": 35,
          "material": 5,
          "mode": 4
        }
      ]
    },
    {
      "name": "Object_9",
      "primitives": [
        {
          "attributes": {
            "NORMAL": 37,
            "POSITION": 36,
            "TEXCOORD_0": 38
          },
          "indices": 39,
          "material": 5,
          "mode": 4
        }
      ]
    },
    {
      "name": "Object_10",
      "primitives": [
        {
          "attributes": {
            "NORMAL": 41,
            "POSITION": 40,
            "TEXCOORD_0": 42
          },
          "indices": 43,
          "material": 6,
          "mode": 4
        }
      ]
    },
    {
      "name": "Object_11",
      "primitives": [
        {
          "attributes": {
            "NORMAL": 45,
            "POSITION": 44,
            "TEXCOORD_0": 46
          },
          "indices": 47,
          "material": 6,
          "mode": 4
        }
      ]
    }
  ],
  "nodes": [
    {
      "children": [
        1
      ],
      "matrix": [
        1.0,
        0.0,
        0.0,
        0.0,
        0.0,
        2.220446049250313e-16,
        -1.0,
        0.0,
        0.0,
        1.0,
        2.220446049250313e-16,
        0.0,
        0.0,
        0.0,
        0.0,
        1.0
      ],
      "name": "Sketchfab_model"
    },
    {
      "children": [
        2,
        3,
        4,
        5,
        6,
        7,
        8,
        9,
        10,
        11,
        12,
        13
      ],
      "name": "decanter_v6 (1).obj.cleaner.materialmerger.gles"
    },
    {
      "mesh": 0,
      "name": "Object_2"
    },
    {
      "mesh": 1,
      "name": "Object_3"
    },
    {
      "mesh": 2,
      "name": "Object_4"
    },
    {
      "mesh": 3,
      "name": "Object_5"
    },
    {
      "mesh": 4,
      "name": "Object_6"
    },
    {
      "mesh": 5,
      "name": "Object_7"
    },
    {
      "mesh": 6,
      "name": "Object_8"
    },
    {
      "mesh": 7,
      "name": "Object_9"
    },
    {
      "mesh": 8,
      "name": "Object_10"
    },
    {
      "mesh": 9,
      "name": "Object_11"
    },
    {
      "mesh": 10,
      "name": "Object_12"
    },
    {
      "mesh": 11,
      "name": "Object_13"
    }
  ],
  "scene": 0,
  "scenes": [
    {
      "name": "Sketchfab_Scene",
      "nodes": [
        0
      ]
    }
  ]
}
